<svg width="100%" height="100%" viewBox="0 0 207 256" version="1.1" style="fill-rule:evenodd;clip-rule:evenodd;stroke-miterlimit:1.41421;"><g><path d="M154.676,157.246c-30.933,53.58 -79.079,83.698 -107.532,67.268c-28.455,-16.428 -26.445,-73.182 4.488,-126.761c30.936,-53.581 79.079,-83.698 107.536,-67.269c28.455,16.428 26.444,73.181 -4.492,126.762Z" style="fill:none;stroke:#231f20;stroke-width:4.5px;"/><path d="M119.127,62.212l6.263,-8.153l-5.345,-8.586l9.341,3.402l5.78,-7.291l-0.217,9.343l9.505,3.51l-9.613,3.132l-0.593,9.936l-5.563,-8.208l-9.558,2.915Z" style="fill:#231f20;fill-rule:nonzero;"/><path d="M140.673,124.205l5.94,-7.722l-5.075,-8.154l8.909,3.24l5.508,-6.966l-0.215,8.91l9.071,3.294l-9.181,2.97l-0.539,9.505l-5.292,-7.831l-9.126,2.754Z" style="fill:#231f20;fill-rule:nonzero;"/><path d="M110.595,129.227l3.51,-4.537l-2.971,-4.859l5.185,1.944l3.294,-4.104l-0.162,5.238l5.346,1.944l-5.4,1.781l-0.324,5.562l-3.132,-4.589l-5.346,1.62Z" style="fill:#231f20;fill-rule:nonzero;"/><path d="M68.907,90.509l4.482,-5.779l-3.78,-6.101l6.643,2.43l4.103,-5.184l-0.162,6.642l6.75,2.484l-6.804,2.213l-0.431,7.075l-3.943,-5.832l-6.858,2.052Z" style="fill:#231f20;fill-rule:nonzero;"/><path d="M44.337,213.845l7.776,-10.098l-6.588,-10.638l11.557,4.212l7.128,-9.018l-0.271,11.556l11.826,4.319l-11.933,3.889l-0.703,12.365l-6.912,-10.205l-11.88,3.618Z" style="fill:#231f20;fill-rule:nonzero;"/><path d="M134.841,94.775c7.56,-3.672 9.451,-10.962 12.96,-11.124c-1.188,-2.485 -25.217,3.24 -49.194,9.828l-0.054,-40.986l-4.32,7.938l-3.942,35.37c-18.576,5.238 -35.424,10.476 -39.366,12.042l-0.54,1.458l0.972,-0.486l1.188,2.484l0.972,-0.486c1.512,0.54 11.448,-3.672 10.26,0.54c2.322,1.404 12.852,-0.432 25.11,-3.294l-13.012,128.613l23.814,7.993l-1.028,-139.036c18.144,-4.644 36.396,-10.314 36.18,-10.854Z" style="fill:#231f20;fill-rule:nonzero;"/></g></svg>